<svg width="112" height="114" viewBox="0 0 112 114" fill="none" xmlns="http://www.w3.org/2000/svg">
<line x1="2" y1="63" x2="109" y2="63" stroke="#8A0088" stroke-width="4" stroke-linecap="round"/>
<line x1="4" y1="70" x2="109" y2="70" stroke="#740178" stroke-width="4" stroke-linecap="round"/>
<line x1="6" y1="77" x2="106" y2="77" stroke="#75008A" stroke-width="4" stroke-linecap="round"/>
<line x1="11" y1="84" x2="103" y2="84" stroke="#4C008A" stroke-width="4" stroke-linecap="round"/>
<line x1="13" y1="91" x2="99" y2="91" stroke="#3A008A" stroke-width="4" stroke-linecap="round"/>
<line x1="18" y1="98" x2="94" y2="98" stroke="#2D0076" stroke-width="4" stroke-linecap="round"/>
<line x1="29" y1="105" x2="86" y2="105" stroke="#250060" stroke-width="4" stroke-linecap="round"/>
<line x1="38" y1="112" x2="74" y2="112" stroke="#23005A" stroke-width="4" stroke-linecap="round"/>
<path d="M56.1355 57.5H5.13553C4.08254 57.5 2.63544 57.4997 1.63553 55.5C0.635616 53.5 1.10884 50.7197 1.13553 50C5.07207 20.4762 25.8994 0.636933 56.1355 0.0146484V57.5ZM56.1365 0.0146484C86.3722 0.637277 107.2 20.4764 111.137 50C111.163 50.7197 111.636 53.5 110.637 55.5C109.637 57.4995 108.189 57.5 107.137 57.5H56.1365V0.0146484Z" fill="#FF9500"/>
</svg>
