<svg width="420" height="144" viewBox="0 0 420 144" fill="none" xmlns="http://www.w3.org/2000/svg">
<rect width="420" height="144" fill="white"/>
<path d="M182.64 78.4C182.64 81.76 181.813 84.6667 180.16 87.12C178.507 89.5733 176.107 91.4667 172.96 92.8C169.867 94.1333 166.16 94.8 161.84 94.8C159.76 94.8 157.76 94.6667 155.84 94.4C153.973 94.1867 152.187 93.84 150.48 93.36C148.827 92.88 147.28 92.2933 145.84 91.6V82C148.24 83.0667 150.88 84.0533 153.76 84.96C156.64 85.8133 159.573 86.24 162.56 86.24C164.853 86.24 166.72 85.9467 168.16 85.36C169.653 84.72 170.747 83.8667 171.44 82.8C172.133 81.68 172.48 80.4 172.48 78.96C172.48 77.36 172.027 76 171.12 74.88C170.213 73.76 168.88 72.72 167.12 71.76C165.36 70.8 163.173 69.7867 160.56 68.72C158.8 67.9733 157.067 67.1467 155.36 66.24C153.707 65.28 152.213 64.1333 150.88 62.8C149.547 61.4667 148.48 59.8933 147.68 58.08C146.88 56.2667 146.48 54.1333 146.48 51.68C146.48 48.4267 147.253 45.6267 148.8 43.28C150.4 40.9333 152.613 39.1467 155.44 37.92C158.32 36.6933 161.653 36.08 165.44 36.08C168.48 36.08 171.333 36.4 174 37.04C176.667 37.68 179.307 38.5867 181.92 39.76L178.64 48C176.293 46.9867 174.027 46.1867 171.84 45.6C169.653 45.0133 167.413 44.72 165.12 44.72C163.307 44.72 161.76 45.0133 160.48 45.6C159.2 46.1333 158.24 46.9067 157.6 47.92C156.96 48.9333 156.64 50.1067 156.64 51.44C156.64 52.9867 157.04 54.2933 157.84 55.36C158.64 56.4267 159.867 57.44 161.52 58.4C163.227 59.3067 165.413 60.3467 168.08 61.52C171.173 62.8533 173.787 64.24 175.92 65.68C178.053 67.12 179.707 68.8533 180.88 70.88C182.053 72.9067 182.64 75.4133 182.64 78.4ZM230.944 50.64V94H223.024L221.664 88.4H221.184C220.278 89.8933 219.104 91.12 217.664 92.08C216.224 92.9867 214.651 93.6533 212.944 94.08C211.238 94.56 209.478 94.8 207.664 94.8C204.464 94.8 201.691 94.24 199.344 93.12C196.998 92 195.211 90.2933 193.984 88C192.758 85.6533 192.144 82.64 192.144 78.96V50.64H202.224V76.96C202.224 80.16 202.864 82.5867 204.144 84.24C205.424 85.84 207.451 86.64 210.224 86.64C212.944 86.64 215.078 86.08 216.624 84.96C218.171 83.7867 219.264 82.1067 219.904 79.92C220.544 77.7333 220.864 75.04 220.864 71.84V50.64H230.944ZM266.993 49.84C271.846 49.84 275.633 51.0933 278.353 53.6C281.126 56.1067 282.512 60.16 282.512 65.76V94H272.433V67.76C272.433 64.5067 271.793 62.08 270.513 60.48C269.233 58.8267 267.206 58 264.433 58C260.379 58 257.606 59.28 256.113 61.84C254.619 64.3467 253.873 68 253.873 72.8V94H243.793V50.64H251.553L252.993 56.32H253.553C254.513 54.8267 255.686 53.6 257.073 52.64C258.459 51.68 260.006 50.9867 261.713 50.56C263.419 50.08 265.179 49.84 266.993 49.84ZM324.641 81.44C324.641 84.32 323.947 86.7733 322.561 88.8C321.174 90.7733 319.121 92.2667 316.401 93.28C313.734 94.2933 310.454 94.8 306.561 94.8C303.521 94.8 300.907 94.5867 298.721 94.16C296.534 93.7333 294.454 93.0667 292.481 92.16V83.6C294.614 84.6133 296.987 85.4667 299.601 86.16C302.214 86.8533 304.641 87.2 306.881 87.2C309.654 87.2 311.654 86.7733 312.881 85.92C314.107 85.0667 314.721 83.92 314.721 82.48C314.721 81.6267 314.481 80.8533 314.001 80.16C313.521 79.4667 312.587 78.7467 311.201 78C309.814 77.2 307.707 76.2133 304.881 75.04C302.107 73.92 299.787 72.8 297.921 71.68C296.107 70.56 294.721 69.2267 293.761 67.68C292.854 66.08 292.401 64.08 292.401 61.68C292.401 57.7867 293.947 54.8533 297.041 52.88C300.134 50.8533 304.214 49.84 309.281 49.84C311.947 49.84 314.454 50.1067 316.801 50.64C319.201 51.12 321.601 51.92 324.001 53.04L320.801 60.48C319.467 59.8933 318.134 59.3867 316.801 58.96C315.521 58.48 314.214 58.1067 312.881 57.84C311.601 57.5733 310.294 57.44 308.961 57.44C306.774 57.44 305.121 57.7867 304.001 58.48C302.881 59.12 302.321 60.0267 302.321 61.2C302.321 62.1067 302.587 62.9067 303.121 63.6C303.707 64.24 304.694 64.9067 306.081 65.6C307.521 66.24 309.547 67.0933 312.161 68.16C314.774 69.1733 316.987 70.24 318.801 71.36C320.667 72.4267 322.107 73.76 323.121 75.36C324.134 76.96 324.641 78.9867 324.641 81.44ZM351.779 49.84C355.673 49.84 359.006 50.64 361.779 52.24C364.606 53.7867 366.793 56.0267 368.339 58.96C369.886 61.84 370.659 65.36 370.659 69.52V74.64H342.019C342.126 78.5867 343.219 81.6533 345.299 83.84C347.379 85.9733 350.259 87.04 353.939 87.04C356.766 87.04 359.273 86.7733 361.459 86.24C363.699 85.6533 365.993 84.8267 368.339 83.76V91.84C366.206 92.8533 363.993 93.6 361.699 94.08C359.406 94.56 356.659 94.8 353.459 94.8C349.246 94.8 345.486 94 342.179 92.4C338.926 90.7467 336.366 88.2667 334.499 84.96C332.686 81.6533 331.779 77.5467 331.779 72.64C331.779 67.68 332.606 63.52 334.259 60.16C335.966 56.7467 338.313 54.1867 341.299 52.48C344.286 50.72 347.779 49.84 351.779 49.84ZM351.779 57.28C349.113 57.28 346.926 58.16 345.219 59.92C343.566 61.6267 342.579 64.1867 342.259 67.6H360.899C360.899 65.5733 360.553 63.7867 359.859 62.24C359.219 60.6933 358.233 59.4933 356.899 58.64C355.566 57.7333 353.859 57.28 351.779 57.28ZM397.624 86.72C398.904 86.72 400.13 86.6133 401.304 86.4C402.477 86.1333 403.57 85.84 404.584 85.52V93.04C403.517 93.52 402.13 93.92 400.424 94.24C398.717 94.6133 396.93 94.8 395.064 94.8C392.61 94.8 390.37 94.4 388.344 93.6C386.37 92.7467 384.77 91.3067 383.544 89.28C382.37 87.2533 381.784 84.4267 381.784 80.8V58.24H375.944V53.84L382.344 50.32L385.544 41.12H391.864V50.64H404.184V58.24H391.864V80.72C391.864 82.7467 392.397 84.2667 393.464 85.28C394.53 86.24 395.917 86.72 397.624 86.72Z" fill="black"/>
<path d="M151.764 108.608C151.372 108.608 151.024 108.68 150.72 108.824C150.416 108.968 150.156 109.176 149.94 109.448C149.732 109.72 149.572 110.048 149.46 110.432C149.356 110.816 149.304 111.248 149.304 111.728C149.304 112.376 149.392 112.932 149.568 113.396C149.744 113.852 150.012 114.204 150.372 114.452C150.74 114.7 151.2 114.824 151.752 114.824C152.12 114.824 152.472 114.788 152.808 114.716C153.152 114.636 153.512 114.532 153.888 114.404V115.712C153.536 115.856 153.18 115.96 152.82 116.024C152.468 116.088 152.06 116.12 151.596 116.12C150.716 116.12 149.988 115.94 149.412 115.58C148.836 115.212 148.408 114.7 148.128 114.044C147.848 113.38 147.708 112.604 147.708 111.716C147.708 111.068 147.796 110.476 147.972 109.94C148.156 109.404 148.416 108.94 148.752 108.548C149.096 108.156 149.52 107.852 150.024 107.636C150.528 107.42 151.108 107.312 151.764 107.312C152.196 107.312 152.62 107.364 153.036 107.468C153.46 107.564 153.856 107.7 154.224 107.876L153.696 109.136C153.392 109 153.076 108.88 152.748 108.776C152.428 108.664 152.1 108.608 151.764 108.608ZM158.181 109.376C159.021 109.376 159.657 109.56 160.089 109.928C160.529 110.288 160.749 110.856 160.749 111.632V116H159.681L159.381 115.1H159.333C159.149 115.332 158.957 115.528 158.757 115.688C158.565 115.84 158.341 115.948 158.085 116.012C157.837 116.084 157.533 116.12 157.173 116.12C156.789 116.12 156.441 116.048 156.129 115.904C155.825 115.76 155.585 115.54 155.409 115.244C155.233 114.94 155.145 114.56 155.145 114.104C155.145 113.432 155.389 112.928 155.877 112.592C156.373 112.248 157.121 112.06 158.121 112.028L159.249 111.992V111.668C159.249 111.252 159.149 110.956 158.949 110.78C158.749 110.604 158.469 110.516 158.109 110.516C157.781 110.516 157.465 110.564 157.161 110.66C156.857 110.756 156.561 110.868 156.273 110.996L155.793 109.94C156.113 109.772 156.477 109.636 156.885 109.532C157.301 109.428 157.733 109.376 158.181 109.376ZM158.457 112.952C157.793 112.976 157.333 113.092 157.077 113.3C156.821 113.5 156.693 113.772 156.693 114.116C156.693 114.42 156.785 114.64 156.969 114.776C157.153 114.912 157.389 114.98 157.677 114.98C158.117 114.98 158.489 114.856 158.793 114.608C159.097 114.352 159.249 113.976 159.249 113.48V112.928L158.457 112.952ZM164.156 116H162.644V106.88H164.156V116ZM168.717 116.12C168.101 116.12 167.565 116.004 167.109 115.772C166.661 115.532 166.313 115.168 166.065 114.68C165.825 114.184 165.705 113.552 165.705 112.784C165.705 111.984 165.837 111.336 166.101 110.84C166.373 110.336 166.745 109.968 167.217 109.736C167.689 109.496 168.229 109.376 168.837 109.376C169.245 109.376 169.609 109.416 169.929 109.496C170.249 109.576 170.521 109.672 170.745 109.784L170.301 110.972C170.053 110.876 169.805 110.796 169.557 110.732C169.309 110.66 169.069 110.624 168.837 110.624C168.477 110.624 168.177 110.704 167.937 110.864C167.705 111.024 167.533 111.264 167.421 111.584C167.309 111.896 167.253 112.292 167.253 112.772C167.253 113.236 167.309 113.624 167.421 113.936C167.541 114.248 167.717 114.484 167.949 114.644C168.181 114.796 168.469 114.872 168.813 114.872C169.181 114.872 169.505 114.828 169.785 114.74C170.065 114.652 170.329 114.532 170.577 114.38V115.688C170.329 115.84 170.061 115.948 169.773 116.012C169.493 116.084 169.141 116.12 168.717 116.12ZM177.873 109.496V116H176.685L176.481 115.16H176.409C176.273 115.384 176.097 115.568 175.881 115.712C175.665 115.848 175.429 115.948 175.173 116.012C174.917 116.084 174.653 116.12 174.381 116.12C173.901 116.12 173.485 116.036 173.133 115.868C172.781 115.7 172.513 115.444 172.329 115.1C172.145 114.748 172.053 114.296 172.053 113.744V109.496H173.565V113.444C173.565 113.924 173.661 114.288 173.853 114.536C174.045 114.776 174.349 114.896 174.765 114.896C175.173 114.896 175.493 114.812 175.725 114.644C175.957 114.468 176.121 114.216 176.217 113.888C176.313 113.56 176.361 113.156 176.361 112.676V109.496H177.873ZM181.312 116H179.8V106.88H181.312V116ZM185.837 109.376C186.677 109.376 187.313 109.56 187.745 109.928C188.185 110.288 188.405 110.856 188.405 111.632V116H187.337L187.037 115.1H186.989C186.805 115.332 186.613 115.528 186.413 115.688C186.221 115.84 185.997 115.948 185.741 116.012C185.493 116.084 185.189 116.12 184.829 116.12C184.445 116.12 184.097 116.048 183.785 115.904C183.481 115.76 183.241 115.54 183.065 115.244C182.889 114.94 182.801 114.56 182.801 114.104C182.801 113.432 183.045 112.928 183.533 112.592C184.029 112.248 184.777 112.06 185.777 112.028L186.905 111.992V111.668C186.905 111.252 186.805 110.956 186.605 110.78C186.405 110.604 186.125 110.516 185.765 110.516C185.437 110.516 185.121 110.564 184.817 110.66C184.513 110.756 184.217 110.868 183.929 110.996L183.449 109.94C183.769 109.772 184.133 109.636 184.541 109.532C184.957 109.428 185.389 109.376 185.837 109.376ZM186.113 112.952C185.449 112.976 184.989 113.092 184.733 113.3C184.477 113.5 184.349 113.772 184.349 114.116C184.349 114.42 184.441 114.64 184.625 114.776C184.809 114.912 185.045 114.98 185.333 114.98C185.773 114.98 186.145 114.856 186.449 114.608C186.753 114.352 186.905 113.976 186.905 113.48V112.928L186.113 112.952ZM192.82 114.908C193.012 114.908 193.196 114.892 193.372 114.86C193.548 114.82 193.712 114.776 193.864 114.728V115.856C193.704 115.928 193.496 115.988 193.24 116.036C192.984 116.092 192.716 116.12 192.436 116.12C192.068 116.12 191.732 116.06 191.428 115.94C191.132 115.812 190.892 115.596 190.708 115.292C190.532 114.988 190.444 114.564 190.444 114.02V110.636H189.568V109.976L190.528 109.448L191.008 108.068H191.956V109.496H193.804V110.636H191.956V114.008C191.956 114.312 192.036 114.54 192.196 114.692C192.356 114.836 192.564 114.908 192.82 114.908ZM196.687 109.496V116H195.175V109.496H196.687ZM195.931 106.988C196.155 106.988 196.351 107.048 196.519 107.168C196.687 107.28 196.771 107.484 196.771 107.78C196.771 108.068 196.687 108.276 196.519 108.404C196.351 108.524 196.155 108.584 195.931 108.584C195.699 108.584 195.499 108.524 195.331 108.404C195.171 108.276 195.091 108.068 195.091 107.78C195.091 107.484 195.171 107.28 195.331 107.168C195.499 107.048 195.699 106.988 195.931 106.988ZM204.428 112.736C204.428 113.28 204.356 113.76 204.212 114.176C204.068 114.592 203.86 114.948 203.588 115.244C203.324 115.532 202.996 115.752 202.604 115.904C202.22 116.048 201.792 116.12 201.32 116.12C200.872 116.12 200.46 116.048 200.084 115.904C199.708 115.752 199.38 115.532 199.1 115.244C198.828 114.948 198.616 114.592 198.464 114.176C198.312 113.76 198.236 113.28 198.236 112.736C198.236 112.016 198.36 111.408 198.608 110.912C198.856 110.408 199.212 110.028 199.676 109.772C200.148 109.508 200.704 109.376 201.344 109.376C201.952 109.376 202.484 109.508 202.94 109.772C203.404 110.028 203.768 110.408 204.032 110.912C204.296 111.408 204.428 112.016 204.428 112.736ZM199.784 112.736C199.784 113.192 199.836 113.584 199.94 113.912C200.052 114.232 200.22 114.476 200.444 114.644C200.676 114.812 200.972 114.896 201.332 114.896C201.7 114.896 201.996 114.812 202.22 114.644C202.452 114.476 202.62 114.232 202.724 113.912C202.828 113.584 202.88 113.192 202.88 112.736C202.88 112.272 202.824 111.884 202.712 111.572C202.608 111.252 202.44 111.012 202.208 110.852C201.984 110.684 201.692 110.6 201.332 110.6C200.788 110.6 200.392 110.784 200.144 111.152C199.904 111.52 199.784 112.048 199.784 112.736ZM209.472 109.376C210.2 109.376 210.768 109.564 211.176 109.94C211.592 110.316 211.8 110.924 211.8 111.764V116H210.288V112.064C210.288 111.576 210.192 111.212 210 110.972C209.808 110.724 209.504 110.6 209.088 110.6C208.48 110.6 208.064 110.792 207.84 111.176C207.616 111.552 207.504 112.1 207.504 112.82V116H205.992V109.496H207.156L207.372 110.348H207.456C207.6 110.124 207.776 109.94 207.984 109.796C208.192 109.652 208.424 109.548 208.68 109.484C208.936 109.412 209.2 109.376 209.472 109.376ZM218.119 114.116C218.119 114.548 218.015 114.916 217.807 115.22C217.599 115.516 217.291 115.74 216.883 115.892C216.483 116.044 215.991 116.12 215.407 116.12C214.951 116.12 214.559 116.088 214.231 116.024C213.903 115.96 213.591 115.86 213.295 115.724V114.44C213.615 114.592 213.971 114.72 214.363 114.824C214.755 114.928 215.119 114.98 215.455 114.98C215.871 114.98 216.171 114.916 216.355 114.788C216.539 114.66 216.631 114.488 216.631 114.272C216.631 114.144 216.595 114.028 216.523 113.924C216.451 113.82 216.311 113.712 216.103 113.6C215.895 113.48 215.579 113.332 215.155 113.156C214.739 112.988 214.391 112.82 214.111 112.652C213.839 112.484 213.631 112.284 213.487 112.052C213.351 111.812 213.283 111.512 213.283 111.152C213.283 110.568 213.515 110.128 213.979 109.832C214.443 109.528 215.055 109.376 215.815 109.376C216.215 109.376 216.591 109.416 216.943 109.496C217.303 109.568 217.663 109.688 218.023 109.856L217.543 110.972C217.343 110.884 217.143 110.808 216.943 110.744C216.751 110.672 216.555 110.616 216.355 110.576C216.163 110.536 215.967 110.516 215.767 110.516C215.439 110.516 215.191 110.568 215.023 110.672C214.855 110.768 214.771 110.904 214.771 111.08C214.771 111.216 214.811 111.336 214.891 111.44C214.979 111.536 215.127 111.636 215.335 111.74C215.551 111.836 215.855 111.964 216.247 112.124C216.639 112.276 216.971 112.436 217.243 112.604C217.523 112.764 217.739 112.964 217.891 113.204C218.043 113.444 218.119 113.748 218.119 114.116ZM225.211 114.908C225.403 114.908 225.587 114.892 225.763 114.86C225.939 114.82 226.103 114.776 226.255 114.728V115.856C226.095 115.928 225.887 115.988 225.631 116.036C225.375 116.092 225.107 116.12 224.827 116.12C224.459 116.12 224.123 116.06 223.819 115.94C223.523 115.812 223.283 115.596 223.099 115.292C222.923 114.988 222.835 114.564 222.835 114.02V110.636H221.959V109.976L222.919 109.448L223.399 108.068H224.347V109.496H226.195V110.636H224.347V114.008C224.347 114.312 224.427 114.54 224.587 114.692C224.747 114.836 224.955 114.908 225.211 114.908ZM229.078 109.052C229.078 109.308 229.066 109.56 229.042 109.808C229.026 110.048 229.01 110.228 228.994 110.348H229.09C229.226 110.124 229.394 109.944 229.594 109.808C229.794 109.664 230.014 109.556 230.254 109.484C230.502 109.412 230.758 109.376 231.022 109.376C231.51 109.376 231.93 109.46 232.282 109.628C232.634 109.796 232.902 110.056 233.086 110.408C233.278 110.752 233.374 111.204 233.374 111.764V116H231.862V112.064C231.862 111.568 231.766 111.2 231.574 110.96C231.382 110.72 231.078 110.6 230.662 110.6C230.262 110.6 229.946 110.688 229.714 110.864C229.482 111.032 229.318 111.284 229.222 111.62C229.126 111.948 229.078 112.352 229.078 112.832V116H227.566V106.88H229.078V109.052ZM237.857 109.376C238.697 109.376 239.333 109.56 239.765 109.928C240.205 110.288 240.425 110.856 240.425 111.632V116H239.357L239.057 115.1H239.009C238.825 115.332 238.633 115.528 238.433 115.688C238.241 115.84 238.017 115.948 237.761 116.012C237.513 116.084 237.209 116.12 236.849 116.12C236.465 116.12 236.117 116.048 235.805 115.904C235.501 115.76 235.261 115.54 235.085 115.244C234.909 114.94 234.821 114.56 234.821 114.104C234.821 113.432 235.065 112.928 235.553 112.592C236.049 112.248 236.797 112.06 237.797 112.028L238.925 111.992V111.668C238.925 111.252 238.825 110.956 238.625 110.78C238.425 110.604 238.145 110.516 237.785 110.516C237.457 110.516 237.141 110.564 236.837 110.66C236.533 110.756 236.237 110.868 235.949 110.996L235.469 109.94C235.789 109.772 236.153 109.636 236.561 109.532C236.977 109.428 237.409 109.376 237.857 109.376ZM238.133 112.952C237.469 112.976 237.009 113.092 236.753 113.3C236.497 113.5 236.369 113.772 236.369 114.116C236.369 114.42 236.461 114.64 236.645 114.776C236.829 114.912 237.065 114.98 237.353 114.98C237.793 114.98 238.165 114.856 238.469 114.608C238.773 114.352 238.925 113.976 238.925 113.48V112.928L238.133 112.952ZM244.84 114.908C245.032 114.908 245.216 114.892 245.392 114.86C245.568 114.82 245.732 114.776 245.884 114.728V115.856C245.724 115.928 245.516 115.988 245.26 116.036C245.004 116.092 244.736 116.12 244.456 116.12C244.088 116.12 243.752 116.06 243.448 115.94C243.152 115.812 242.912 115.596 242.728 115.292C242.552 114.988 242.464 114.564 242.464 114.02V110.636H241.588V109.976L242.548 109.448L243.028 108.068H243.976V109.496H245.824V110.636H243.976V114.008C243.976 114.312 244.056 114.54 244.216 114.692C244.376 114.836 244.584 114.908 244.84 114.908ZM249.592 116L251.536 106.88H253.036L251.092 116H249.592ZM255.739 116.108C255.251 116.108 254.819 116.008 254.443 115.808C254.075 115.608 253.787 115.32 253.579 114.944C253.379 114.568 253.279 114.124 253.279 113.612C253.279 113.172 253.323 112.748 253.411 112.34C253.499 111.924 253.631 111.54 253.807 111.188C253.991 110.828 254.219 110.516 254.491 110.252C254.763 109.98 255.079 109.768 255.439 109.616C255.799 109.464 256.203 109.388 256.651 109.388C257.163 109.388 257.599 109.492 257.959 109.7C258.327 109.9 258.611 110.192 258.811 110.576C259.011 110.952 259.111 111.408 259.111 111.944C259.111 112.36 259.067 112.772 258.979 113.18C258.891 113.588 258.755 113.968 258.571 114.32C258.395 114.672 258.175 114.984 257.911 115.256C257.647 115.52 257.331 115.728 256.963 115.88C256.603 116.032 256.195 116.108 255.739 116.108ZM255.847 114.884C256.055 114.884 256.247 114.836 256.423 114.74C256.607 114.636 256.771 114.496 256.915 114.32C257.059 114.136 257.179 113.92 257.275 113.672C257.379 113.424 257.455 113.152 257.503 112.856C257.559 112.552 257.587 112.232 257.587 111.896C257.587 111.664 257.555 111.452 257.491 111.26C257.427 111.068 257.319 110.912 257.167 110.792C257.023 110.672 256.827 110.612 256.579 110.612C256.339 110.612 256.123 110.672 255.931 110.792C255.747 110.904 255.583 111.06 255.439 111.26C255.295 111.46 255.175 111.692 255.079 111.956C254.983 112.212 254.907 112.484 254.851 112.772C254.803 113.052 254.779 113.336 254.779 113.624C254.779 114.032 254.871 114.344 255.055 114.56C255.239 114.776 255.503 114.884 255.847 114.884ZM262.664 116.108C262.176 116.108 261.744 116.008 261.368 115.808C261 115.608 260.712 115.32 260.504 114.944C260.304 114.568 260.204 114.124 260.204 113.612C260.204 113.172 260.248 112.748 260.336 112.34C260.424 111.924 260.556 111.54 260.732 111.188C260.916 110.828 261.144 110.516 261.416 110.252C261.688 109.98 262.004 109.768 262.364 109.616C262.724 109.464 263.128 109.388 263.576 109.388C264.088 109.388 264.524 109.492 264.884 109.7C265.252 109.9 265.536 110.192 265.736 110.576C265.936 110.952 266.036 111.408 266.036 111.944C266.036 112.36 265.992 112.772 265.904 113.18C265.816 113.588 265.68 113.968 265.496 114.32C265.32 114.672 265.1 114.984 264.836 115.256C264.572 115.52 264.256 115.728 263.888 115.88C263.528 116.032 263.12 116.108 262.664 116.108ZM262.772 114.884C262.98 114.884 263.172 114.836 263.348 114.74C263.532 114.636 263.696 114.496 263.84 114.32C263.984 114.136 264.104 113.92 264.2 113.672C264.304 113.424 264.38 113.152 264.428 112.856C264.484 112.552 264.512 112.232 264.512 111.896C264.512 111.664 264.48 111.452 264.416 111.26C264.352 111.068 264.244 110.912 264.092 110.792C263.948 110.672 263.752 110.612 263.504 110.612C263.264 110.612 263.048 110.672 262.856 110.792C262.672 110.904 262.508 111.06 262.364 111.26C262.22 111.46 262.1 111.692 262.004 111.956C261.908 112.212 261.832 112.484 261.776 112.772C261.728 113.052 261.704 113.336 261.704 113.624C261.704 114.032 261.796 114.344 261.98 114.56C262.164 114.776 262.428 114.884 262.772 114.884ZM266.83 116L268.762 106.88H270.274L269.434 110.78C269.362 111.148 269.282 111.48 269.194 111.776C269.106 112.064 269.042 112.272 269.002 112.4H269.038L271.834 109.496H273.562L270.706 112.376L272.398 116H270.73L269.554 113.336L268.786 113.852L268.342 116H266.83ZM278.66 116H277.148V106.88H278.66V116ZM282.105 109.496V116H280.593V109.496H282.105ZM281.349 106.988C281.573 106.988 281.769 107.048 281.937 107.168C282.105 107.28 282.189 107.484 282.189 107.78C282.189 108.068 282.105 108.276 281.937 108.404C281.769 108.524 281.573 108.584 281.349 108.584C281.117 108.584 280.917 108.524 280.749 108.404C280.589 108.276 280.509 108.068 280.509 107.78C280.509 107.484 280.589 107.28 280.749 107.168C280.917 107.048 281.117 106.988 281.349 106.988ZM285.538 111.212C285.538 111.42 285.53 111.64 285.514 111.872C285.498 112.096 285.482 112.316 285.466 112.532H285.502C285.566 112.436 285.642 112.332 285.73 112.22C285.818 112.1 285.906 111.984 285.994 111.872C286.09 111.752 286.182 111.644 286.27 111.548L288.19 109.496H289.906L287.302 112.304L290.074 116H288.31L286.294 113.216L285.538 113.84V116H284.038V106.88H285.538V111.212ZM293.709 109.376C294.293 109.376 294.793 109.496 295.209 109.736C295.633 109.968 295.961 110.304 296.193 110.744C296.425 111.176 296.541 111.704 296.541 112.328V113.096H292.245C292.261 113.688 292.425 114.148 292.737 114.476C293.049 114.796 293.481 114.956 294.033 114.956C294.457 114.956 294.833 114.916 295.161 114.836C295.497 114.748 295.841 114.624 296.193 114.464V115.676C295.873 115.828 295.541 115.94 295.197 116.012C294.853 116.084 294.441 116.12 293.961 116.12C293.329 116.12 292.765 116 292.269 115.76C291.781 115.512 291.397 115.14 291.117 114.644C290.845 114.148 290.709 113.532 290.709 112.796C290.709 112.052 290.833 111.428 291.081 110.924C291.337 110.412 291.689 110.028 292.137 109.772C292.585 109.508 293.109 109.376 293.709 109.376ZM293.709 110.492C293.309 110.492 292.981 110.624 292.725 110.888C292.477 111.144 292.329 111.528 292.281 112.04H295.077C295.077 111.736 295.025 111.468 294.921 111.236C294.825 111.004 294.677 110.824 294.477 110.696C294.277 110.56 294.021 110.492 293.709 110.492ZM303.811 116.12C303.195 116.12 302.659 116.004 302.203 115.772C301.755 115.532 301.407 115.168 301.159 114.68C300.919 114.184 300.799 113.552 300.799 112.784C300.799 111.984 300.931 111.336 301.195 110.84C301.467 110.336 301.839 109.968 302.311 109.736C302.783 109.496 303.323 109.376 303.931 109.376C304.339 109.376 304.703 109.416 305.023 109.496C305.343 109.576 305.615 109.672 305.839 109.784L305.395 110.972C305.147 110.876 304.899 110.796 304.651 110.732C304.403 110.66 304.163 110.624 303.931 110.624C303.571 110.624 303.271 110.704 303.031 110.864C302.799 111.024 302.627 111.264 302.515 111.584C302.403 111.896 302.347 112.292 302.347 112.772C302.347 113.236 302.403 113.624 302.515 113.936C302.635 114.248 302.811 114.484 303.043 114.644C303.275 114.796 303.563 114.872 303.907 114.872C304.275 114.872 304.599 114.828 304.879 114.74C305.159 114.652 305.423 114.532 305.671 114.38V115.688C305.423 115.84 305.155 115.948 304.867 116.012C304.587 116.084 304.235 116.12 303.811 116.12ZM309.787 109.376C310.627 109.376 311.263 109.56 311.695 109.928C312.135 110.288 312.355 110.856 312.355 111.632V116H311.287L310.987 115.1H310.939C310.755 115.332 310.563 115.528 310.363 115.688C310.171 115.84 309.947 115.948 309.691 116.012C309.443 116.084 309.139 116.12 308.779 116.12C308.395 116.12 308.047 116.048 307.735 115.904C307.431 115.76 307.191 115.54 307.015 115.244C306.839 114.94 306.751 114.56 306.751 114.104C306.751 113.432 306.995 112.928 307.483 112.592C307.979 112.248 308.727 112.06 309.727 112.028L310.855 111.992V111.668C310.855 111.252 310.755 110.956 310.555 110.78C310.355 110.604 310.075 110.516 309.715 110.516C309.387 110.516 309.071 110.564 308.767 110.66C308.463 110.756 308.167 110.868 307.879 110.996L307.399 109.94C307.719 109.772 308.083 109.636 308.491 109.532C308.907 109.428 309.339 109.376 309.787 109.376ZM310.063 112.952C309.399 112.976 308.939 113.092 308.683 113.3C308.427 113.5 308.299 113.772 308.299 114.116C308.299 114.42 308.391 114.64 308.575 114.776C308.759 114.912 308.995 114.98 309.283 114.98C309.723 114.98 310.095 114.856 310.399 114.608C310.703 114.352 310.855 113.976 310.855 113.48V112.928L310.063 112.952ZM315.761 116H314.249V106.88H315.761V116ZM320.323 116.12C319.707 116.12 319.171 116.004 318.715 115.772C318.267 115.532 317.919 115.168 317.671 114.68C317.431 114.184 317.311 113.552 317.311 112.784C317.311 111.984 317.443 111.336 317.707 110.84C317.979 110.336 318.351 109.968 318.823 109.736C319.295 109.496 319.835 109.376 320.443 109.376C320.851 109.376 321.215 109.416 321.535 109.496C321.855 109.576 322.127 109.672 322.351 109.784L321.907 110.972C321.659 110.876 321.411 110.796 321.163 110.732C320.915 110.66 320.675 110.624 320.443 110.624C320.083 110.624 319.783 110.704 319.543 110.864C319.311 111.024 319.139 111.264 319.027 111.584C318.915 111.896 318.859 112.292 318.859 112.772C318.859 113.236 318.915 113.624 319.027 113.936C319.147 114.248 319.323 114.484 319.555 114.644C319.787 114.796 320.075 114.872 320.419 114.872C320.787 114.872 321.111 114.828 321.391 114.74C321.671 114.652 321.935 114.532 322.183 114.38V115.688C321.935 115.84 321.667 115.948 321.379 116.012C321.099 116.084 320.747 116.12 320.323 116.12ZM329.478 109.496V116H328.29L328.086 115.16H328.014C327.878 115.384 327.702 115.568 327.486 115.712C327.27 115.848 327.034 115.948 326.778 116.012C326.522 116.084 326.258 116.12 325.986 116.12C325.506 116.12 325.09 116.036 324.738 115.868C324.386 115.7 324.118 115.444 323.934 115.1C323.75 114.748 323.658 114.296 323.658 113.744V109.496H325.17V113.444C325.17 113.924 325.266 114.288 325.458 114.536C325.65 114.776 325.954 114.896 326.37 114.896C326.778 114.896 327.098 114.812 327.33 114.644C327.562 114.468 327.726 114.216 327.822 113.888C327.918 113.56 327.966 113.156 327.966 112.676V109.496H329.478ZM332.918 116H331.406V106.88H332.918V116ZM337.443 109.376C338.283 109.376 338.919 109.56 339.351 109.928C339.791 110.288 340.011 110.856 340.011 111.632V116H338.943L338.643 115.1H338.595C338.411 115.332 338.219 115.528 338.019 115.688C337.827 115.84 337.603 115.948 337.347 116.012C337.099 116.084 336.795 116.12 336.435 116.12C336.051 116.12 335.703 116.048 335.391 115.904C335.087 115.76 334.847 115.54 334.671 115.244C334.495 114.94 334.407 114.56 334.407 114.104C334.407 113.432 334.651 112.928 335.139 112.592C335.635 112.248 336.383 112.06 337.383 112.028L338.511 111.992V111.668C338.511 111.252 338.411 110.956 338.211 110.78C338.011 110.604 337.731 110.516 337.371 110.516C337.043 110.516 336.727 110.564 336.423 110.66C336.119 110.756 335.823 110.868 335.535 110.996L335.055 109.94C335.375 109.772 335.739 109.636 336.147 109.532C336.563 109.428 336.995 109.376 337.443 109.376ZM337.719 112.952C337.055 112.976 336.595 113.092 336.339 113.3C336.083 113.5 335.955 113.772 335.955 114.116C335.955 114.42 336.047 114.64 336.231 114.776C336.415 114.912 336.651 114.98 336.939 114.98C337.379 114.98 337.751 114.856 338.055 114.608C338.359 114.352 338.511 113.976 338.511 113.48V112.928L337.719 112.952ZM344.426 114.908C344.618 114.908 344.802 114.892 344.978 114.86C345.154 114.82 345.318 114.776 345.47 114.728V115.856C345.31 115.928 345.102 115.988 344.846 116.036C344.59 116.092 344.322 116.12 344.042 116.12C343.674 116.12 343.338 116.06 343.034 115.94C342.738 115.812 342.498 115.596 342.314 115.292C342.138 114.988 342.05 114.564 342.05 114.02V110.636H341.174V109.976L342.134 109.448L342.614 108.068H343.562V109.496H345.41V110.636H343.562V114.008C343.562 114.312 343.642 114.54 343.802 114.692C343.962 114.836 344.17 114.908 344.426 114.908ZM348.293 109.496V116H346.781V109.496H348.293ZM347.537 106.988C347.761 106.988 347.957 107.048 348.125 107.168C348.293 107.28 348.377 107.484 348.377 107.78C348.377 108.068 348.293 108.276 348.125 108.404C347.957 108.524 347.761 108.584 347.537 108.584C347.305 108.584 347.105 108.524 346.937 108.404C346.777 108.276 346.697 108.068 346.697 107.78C346.697 107.484 346.777 107.28 346.937 107.168C347.105 107.048 347.305 106.988 347.537 106.988ZM356.034 112.736C356.034 113.28 355.962 113.76 355.818 114.176C355.674 114.592 355.466 114.948 355.194 115.244C354.93 115.532 354.602 115.752 354.21 115.904C353.826 116.048 353.398 116.12 352.926 116.12C352.478 116.12 352.066 116.048 351.69 115.904C351.314 115.752 350.986 115.532 350.706 115.244C350.434 114.948 350.222 114.592 350.07 114.176C349.918 113.76 349.842 113.28 349.842 112.736C349.842 112.016 349.966 111.408 350.214 110.912C350.462 110.408 350.818 110.028 351.282 109.772C351.754 109.508 352.31 109.376 352.95 109.376C353.558 109.376 354.09 109.508 354.546 109.772C355.01 110.028 355.374 110.408 355.638 110.912C355.902 111.408 356.034 112.016 356.034 112.736ZM351.39 112.736C351.39 113.192 351.442 113.584 351.546 113.912C351.658 114.232 351.826 114.476 352.05 114.644C352.282 114.812 352.578 114.896 352.938 114.896C353.306 114.896 353.602 114.812 353.826 114.644C354.058 114.476 354.226 114.232 354.33 113.912C354.434 113.584 354.486 113.192 354.486 112.736C354.486 112.272 354.43 111.884 354.318 111.572C354.214 111.252 354.046 111.012 353.814 110.852C353.59 110.684 353.298 110.6 352.938 110.6C352.394 110.6 351.998 110.784 351.75 111.152C351.51 111.52 351.39 112.048 351.39 112.736ZM361.077 109.376C361.805 109.376 362.373 109.564 362.781 109.94C363.197 110.316 363.405 110.924 363.405 111.764V116H361.893V112.064C361.893 111.576 361.797 111.212 361.605 110.972C361.413 110.724 361.109 110.6 360.693 110.6C360.085 110.6 359.669 110.792 359.445 111.176C359.221 111.552 359.109 112.1 359.109 112.82V116H357.597V109.496H358.761L358.977 110.348H359.061C359.205 110.124 359.381 109.94 359.589 109.796C359.797 109.652 360.029 109.548 360.285 109.484C360.541 109.412 360.805 109.376 361.077 109.376ZM369.724 114.116C369.724 114.548 369.62 114.916 369.412 115.22C369.204 115.516 368.896 115.74 368.488 115.892C368.088 116.044 367.596 116.12 367.012 116.12C366.556 116.12 366.164 116.088 365.836 116.024C365.508 115.96 365.196 115.86 364.9 115.724V114.44C365.22 114.592 365.576 114.72 365.968 114.824C366.36 114.928 366.724 114.98 367.06 114.98C367.476 114.98 367.776 114.916 367.96 114.788C368.144 114.66 368.236 114.488 368.236 114.272C368.236 114.144 368.2 114.028 368.128 113.924C368.056 113.82 367.916 113.712 367.708 113.6C367.5 113.48 367.184 113.332 366.76 113.156C366.344 112.988 365.996 112.82 365.716 112.652C365.444 112.484 365.236 112.284 365.092 112.052C364.956 111.812 364.888 111.512 364.888 111.152C364.888 110.568 365.12 110.128 365.584 109.832C366.048 109.528 366.66 109.376 367.42 109.376C367.82 109.376 368.196 109.416 368.548 109.496C368.908 109.568 369.268 109.688 369.628 109.856L369.148 110.972C368.948 110.884 368.748 110.808 368.548 110.744C368.356 110.672 368.16 110.616 367.96 110.576C367.768 110.536 367.572 110.516 367.372 110.516C367.044 110.516 366.796 110.568 366.628 110.672C366.46 110.768 366.376 110.904 366.376 111.08C366.376 111.216 366.416 111.336 366.496 111.44C366.584 111.536 366.732 111.636 366.94 111.74C367.156 111.836 367.46 111.964 367.852 112.124C368.244 112.276 368.576 112.436 368.848 112.604C369.128 112.764 369.344 112.964 369.496 113.204C369.648 113.444 369.724 113.748 369.724 114.116ZM370.963 115.232C370.963 114.896 371.051 114.66 371.227 114.524C371.403 114.38 371.619 114.308 371.875 114.308C372.131 114.308 372.347 114.376 372.523 114.512C372.707 114.648 372.799 114.888 372.799 115.232C372.799 115.56 372.707 115.796 372.523 115.94C372.347 116.084 372.131 116.156 371.875 116.156C371.619 116.156 371.403 116.084 371.227 115.94C371.051 115.796 370.963 115.56 370.963 115.232Z" fill="black"/>
<line x1="15" y1="76" x2="122" y2="76" stroke="#8A0088" stroke-width="4" stroke-linecap="round"/>
<line x1="17" y1="83" x2="122" y2="83" stroke="#740178" stroke-width="4" stroke-linecap="round"/>
<line x1="19" y1="90" x2="119" y2="90" stroke="#75008A" stroke-width="4" stroke-linecap="round"/>
<line x1="24" y1="97" x2="116" y2="97" stroke="#4C008A" stroke-width="4" stroke-linecap="round"/>
<line x1="26" y1="104" x2="112" y2="104" stroke="#3A008A" stroke-width="4" stroke-linecap="round"/>
<line x1="31" y1="111" x2="107" y2="111" stroke="#2D0076" stroke-width="4" stroke-linecap="round"/>
<line x1="42" y1="118" x2="99" y2="118" stroke="#250060" stroke-width="4" stroke-linecap="round"/>
<line x1="51" y1="125" x2="87" y2="125" stroke="#23005A" stroke-width="4" stroke-linecap="round"/>
<path d="M69.1358 70.5H18.1358C17.0828 70.5 15.6357 70.4997 14.6358 68.5C13.6359 66.5 14.1091 63.7197 14.1358 63C18.0723 33.4762 38.8996 13.6369 69.1358 13.0146V70.5ZM69.1368 13.0146C99.3725 13.6373 120.2 33.4764 124.137 63C124.163 63.7197 124.637 66.5 123.637 68.5C122.637 70.4995 121.19 70.5 120.137 70.5H69.1368V13.0146Z" fill="#FF9500"/>
</svg>
